<?xml version="1.0" encoding="UTF-8"?>
<svg width="552px" height="229px" viewBox="0 0 552 229" version="1.1" xmlns="http://www.w3.org/2000/svg" xmlns:xlink="http://www.w3.org/1999/xlink">
    <!-- Generator: Sketch 48.2 (47327) - http://www.bohemiancoding.com/sketch -->
    <title>SR_Logo_online_RGB-02</title>
    <desc>Created with Sketch.</desc>
    <defs>
        <linearGradient x1="6.55251277%" y1="97.3788535%" x2="51.8123904%" y2="39.2738145%" id="linearGradient-1">
            <stop stop-color="#EDA648" offset="0%"></stop>
            <stop stop-color="#FDCC96" offset="100%"></stop>
        </linearGradient>
    </defs>
    <g id="Page-1" stroke="none" stroke-width="1" fill="none" fill-rule="evenodd">
        <g id="SR_Logo_online_RGB-02" transform="translate(0.000000, -1.000000)">
            <path d="M268.8,75 C266.5,72.3 263.8,69.8 260.9,67.4 C257.9,65 254.9,62.7 251.7,60.4 C248,57.7 244.6,55.1 241.5,52.7 C238.4,50.3 235.7,47.8 233.4,45.3 C231.1,42.8 229.4,40.1 228.1,37.2 C226.9,34.3 226.2,31.2 226.2,27.7 C226.2,25.5 226.5,23.4 227.2,21.2 C227.9,19 229,17 230.4,15.1 C231.9,13.3 233.7,11.8 235.8,10.6 C238,9.4 240.4,8.8 243.2,8.8 C247.8,8.8 251.3,9.7 253.5,11.5 C255.7,13.3 257.4,15.3 258.5,17.4 C259.6,19.5 260.6,21.5 261.4,23.3 C262.2,25.1 263.5,26 265.2,26 C265.6,26 266.2,26 266.8,25.9 C267.5,25.8 268.1,25.6 268.7,25.3 C269.3,25 269.9,24.5 270.3,23.8 C270.7,23.2 271,22.3 271,21.2 C271,19.6 271.5,18.1 272.5,16.8 C273.5,15.5 274,14 274,12.5 C274,10.6 273.1,8.9 271.3,7.4 C269.5,5.9 267.3,4.8 264.5,3.8 C261.7,2.9 258.7,2.2 255.4,1.7 C252.1,1.2 249,1 245.9,1 C241.9,1 237.8,1.6 233.6,2.8 C229.4,4 225.5,5.9 222,8.4 C218.5,11 215.6,14.4 213.4,18.5 C211.2,22.6 210.1,27.7 210.1,33.6 C210.1,37.5 211,41.2 212.9,44.7 C214.7,48.2 217.1,51.6 220,54.8 C222.9,58 226.2,61.1 229.9,64.2 C233.6,67.2 237.3,70.2 241.1,73.1 C243.7,75 246.1,77 248.4,78.9 C250.7,80.8 252.7,82.7 254.4,84.6 C256.1,86.5 257.5,88.3 258.5,90.1 C259.5,91.9 260,93.6 260,95.2 C260,97.2 259.3,99 257.8,100.5 C256.3,101.9 254.6,103.1 252.5,104 C250.4,104.9 248.4,105.5 246.3,105.9 C244.2,106.3 242.5,106.6 241.4,106.6 C239.6,106.6 237.2,106.4 234.4,106.2 C231.5,105.9 228.8,105.3 226.1,104.3 C223.4,103.3 221.1,101.9 219.1,100.1 C217.2,98.3 216.2,95.9 216.2,92.8 C216.2,90.1 216.6,88 217.3,86.4 C218,84.9 218.5,83.7 218.7,83.1 C214.5,84 211.3,85.3 209.1,87.1 C206.9,88.9 205.8,91.5 205.8,94.7 C205.8,98.2 207,101.2 209.3,103.7 C211.6,106.1 214.6,108.1 218.1,109.7 C221.7,111.3 225.5,112.4 229.8,113 C234,113.7 238,114 241.8,114 C245.6,114 249.5,113.7 253.5,113.1 C257.5,112.5 261.2,111.4 264.6,109.9 C267.9,108.3 270.7,106.3 272.9,103.7 C275.1,101.1 276.2,97.8 276.2,93.8 C276.2,90.2 275.5,86.9 274.1,83.9 C272.9,80.6 271.1,77.7 268.8,75 Z M367.5,72.3 C367.1,72.3 366.6,72.4 366.1,72.7 C365.6,73 365.3,73.7 365,74.9 C364.8,76.2 364.4,78.2 363.8,80.9 C363.2,83.6 362.4,86.3 361.5,88.9 C360.5,91.5 359.4,93.9 358.1,95.9 C356.8,97.9 355.4,98.9 353.7,98.9 C352.7,98.9 351.9,98.2 351.3,96.8 C350.7,95.4 350.2,93.8 349.8,91.9 C349.5,90.1 349.3,88.3 349.1,86.6 C349,84.9 348.9,83.7 348.9,83 C348.9,74.9 349.9,67.1 351.8,59.7 C351.8,59.5 351.9,59 352.1,58.4 C352.3,57.8 352.6,57 352.9,56.2 C353.2,55.4 353.5,54.6 353.7,53.8 C353.9,53 354,52.4 354,51.9 C354,50.6 353.3,49.6 351.8,48.9 C350.3,48.2 348.6,47.7 346.7,47.4 C344.8,47.1 342.8,46.9 340.9,46.8 C338.9,46.7 337.5,46.6 336.7,46.5 L336.2,46.5 C335.2,46.3 334.6,46.1 334.3,45.9 C334,45.7 333.8,45.3 333.8,44.5 L333.8,43.5 L334,39.9 L334,39.1 C334,36.7 333.1,35.5 331.2,35.5 C330.4,35.5 329.6,35.6 328.6,35.8 C327.6,36 326.7,36.3 325.8,36.8 C324.9,37.2 324.2,37.7 323.7,38.3 C323.2,38.8 322.9,39.4 322.9,40.1 L323.4,49.7 C323.6,51.2 323.7,52.6 323.7,53.9 C323.7,55.2 323.7,56.4 323.7,57.6 L323.7,61.8 C323.7,62.9 323.7,63.8 323.6,64.6 C323.5,65.4 323.5,66 323.5,66.5 L323.5,67.6 C323.4,69.6 323.2,71.8 323,74.2 C322.8,76.7 322.2,79.8 321.4,83.6 C321.3,84.1 321.2,84.5 321.1,84.9 C320.4,86.9 319.6,88.7 318.5,90.4 C317.2,92.3 315.6,93.9 313.6,95.2 C311.6,96.4 309,97.1 305.9,97.1 C303.6,97.1 301.7,96.6 300.2,95.6 C298.6,94.6 297.4,93.4 296.4,92 C295.4,90.6 294.7,89.3 294.2,87.9 C293.7,86.5 293.5,85.4 293.5,84.7 L293.5,80 C294.3,80.2 295,80.4 295.8,80.5 C296.6,80.6 297.3,80.7 297.8,80.7 C300.8,80.7 303.5,79.8 305.9,78 C308.3,76.2 310.3,74 311.9,71.4 C313.5,68.8 314.8,65.9 315.6,62.8 C316.5,59.7 316.9,56.9 316.9,54.3 L316.7,52 C316.6,50.2 316.2,48.4 315.4,46.7 C314.6,45 313.6,43.5 312.3,42.2 C311,40.9 309.5,39.9 307.8,39 C306.1,38.2 304.2,37.8 302.3,37.8 C298.3,37.8 294.9,39.1 292.1,41.8 C289.3,44.4 287,47.7 285.1,51.7 C283.3,55.6 281.9,59.9 281.1,64.4 C280.2,68.9 279.8,73.1 279.8,76.9 C279.8,80.8 280.2,84.5 281,88 C281.8,91.5 283.2,94.5 285,97.1 C286.9,99.7 289.3,101.7 292.2,103.2 C295.1,104.7 298.7,105.5 302.9,105.5 C307.3,105.5 311.1,104.5 314.3,102.6 C317.5,100.7 320.1,98.3 322.1,95.4 C324.2,92.5 325.7,89.4 326.6,86.1 C327.3,83.6 327.8,81.2 328,79 C328.5,76.7 329,74.2 329.5,71.3 C330,68.1 330.4,64.8 330.9,61.3 L331.5,56.1 C331.6,55.7 331.8,55.3 332.1,55 C332.4,54.7 333.2,54.5 334.5,54.5 C335.3,54.5 336.1,54.6 336.9,54.8 C337.8,55 338.2,55.6 338.2,56.4 C338.1,59.2 337.9,62 337.5,64.9 C337.2,67.8 337,70.6 337,73.4 C337,75.9 337.2,79 337.5,82.7 C337.8,86.4 338.5,90 339.6,93.4 C340.7,96.8 342.2,99.7 344.3,102.1 C346.4,104.5 349.1,105.7 352.6,105.7 C355.8,105.7 358.5,104.5 360.6,102 C362.7,99.5 364.4,96.7 365.6,93.5 C366.8,90.3 367.7,87.3 368.2,84.4 C368.7,81.5 368.9,79.7 368.9,79 C369,78.6 369.1,77.9 369.1,77 C369.1,76.1 369.2,75.5 369.2,75.3 C369.8,73.3 369.1,72.3 367.5,72.3 Z M294.9,70 C294.9,69.3 295.1,67.7 295.5,65.2 C295.9,62.8 296.6,60.2 297.5,57.6 C298.4,55 299.6,52.6 301,50.6 C302.4,48.6 304.1,47.5 306,47.5 C307.3,47.5 308.2,48 308.7,49 C309.2,50 309.4,50.9 309.4,51.8 L309.4,52.8 C309.4,54.3 309.2,56.2 308.7,58.6 C308.3,61 307.6,63.3 306.7,65.6 C305.8,67.9 304.6,69.8 303.1,71.4 C301.6,73 299.8,73.8 297.6,73.8 L296.8,73.8 C295.8,73.8 295.2,73.5 295.1,72.9 C294.9,72.3 294.8,71.5 294.8,70.6 L294.8,70 L294.9,70 Z M421,64 C420.7,64 420,64.4 419.1,65.3 C418.1,66.2 416.9,66.6 415.4,66.6 C415.1,66.6 414.4,66.4 413.4,66 C412.4,65.6 411.9,65.3 411.9,65 C411.8,63.1 411.7,61.3 411.7,59.7 C411.6,58.1 411.6,56.6 411.5,55.2 C411.5,53.7 411.3,52.3 411,50.8 C410.7,49.3 410.3,47.7 409.8,46 C409.6,45.6 409.4,45 409.3,44.3 C409.2,43.6 408.9,43.1 408.3,42.8 C408.1,42.7 407.7,42.6 407.1,42.4 C406.5,42.2 405.9,42.1 405.2,42 C404.5,41.9 403.9,41.8 403.2,41.7 C402.6,41.6 402.2,41.5 401.8,41.5 C401.7,41.5 401.4,41.6 401,41.7 C400.6,41.9 400.1,42.1 399.7,42.3 C399.3,42.5 398.9,42.7 398.5,43 C398.1,43.2 397.9,43.4 397.9,43.5 C397.5,44.1 397.1,45 396.8,46.2 C396.5,47.3 396.3,48.5 396.2,49.8 C396,51 395.9,52.3 395.9,53.4 C395.8,54.6 395.8,55.6 395.8,56.5 L395.8,59.9 C396,62.1 396.5,63.9 397.3,65.4 C398.1,66.9 399,68.2 399.9,69.3 C400.8,70.4 401.6,71.2 402.3,71.9 C403,72.5 403.3,73.1 403.3,73.7 C403.3,75.1 403.2,77.1 403,79.8 C402.8,82.4 402.3,85.1 401.7,87.7 C401.1,90.3 400.1,92.7 398.9,94.7 C397.7,96.7 396.1,97.7 394.2,97.7 C392.2,97.7 390.5,96.8 389.3,94.9 C388.1,93 387.1,90.8 386.5,88.2 C385.9,85.6 385.4,83 385.2,80.3 C385,77.7 384.9,75.6 384.9,74.1 C384.9,70.2 385.1,66.3 385.4,62.5 C385.7,58.6 386.1,54.8 386.7,51 C386.8,50.3 386.9,49.5 387.1,48.6 C387.3,47.6 387.4,46.6 387.6,45.6 C387.8,44.6 387.9,43.6 388,42.7 C388.1,41.8 388.2,41.1 388.2,40.5 C388.2,40.2 387.9,39.9 387.2,39.7 C386.5,39.5 385.8,39.3 385,39.2 C384.2,39.1 383.4,39 382.7,39 C381.9,39 381.5,39 381.2,39 C380,39 378.9,39.1 378,39.4 C377,39.7 375.9,39.9 374.8,40 C373,49.5 372.1,58.8 372.1,68 C372.1,72 372.3,76.2 372.6,80.6 C372.9,85 373.8,89.1 375.2,92.8 C376.6,96.5 378.8,99.6 381.7,102 C384.6,104.4 388.7,105.6 393.8,105.6 C394.3,105.6 394.9,105.6 395.4,105.6 C395.9,105.6 396.5,105.5 397,105.4 C399.6,105.2 401.8,103.9 403.7,101.5 C405.6,99.1 407.2,96.3 408.4,93.1 C409.6,89.9 410.6,86.5 411.2,83.1 C411.8,79.6 412.2,76.8 412.2,74.5 L412.2,73.7 C413.4,73.6 414.6,73.5 415.8,73.3 C417,73.1 418.1,72.8 419.1,72.4 C420.1,72 420.9,71.3 421.4,70.5 C422,69.6 422.3,68.4 422.3,66.8 C422.3,66.5 422.2,66 422.1,65.3 C421.8,64.4 421.5,64 421,64 Z M429,28.4 C431.2,29.7 433.4,30.3 435.7,30.3 C435.9,30.3 436.5,30.2 437.3,30.1 C438.2,30 439.1,29.8 440,29.6 C440.9,29.4 441.8,29 442.5,28.5 C443.3,28 443.6,27.4 443.6,26.6 C443.6,26.3 443.3,25.7 442.7,24.9 C442.1,24.1 441.7,23.5 441.5,23.2 C440.2,20.3 438.5,18.3 436.4,17.2 C434.3,16.1 432.2,15.6 430,15.6 C429.7,15.6 429.1,15.7 428.1,15.9 C427.2,16.1 426.2,16.4 425.2,16.9 C424.2,17.3 423.2,17.8 422.4,18.2 C421.6,18.6 421.2,19.1 421.2,19.7 C421.2,19.9 421.4,20.3 421.8,20.8 C422.2,21.3 422.6,21.8 422.8,22.1 C424.7,25.1 426.8,27.2 429,28.4 Z M548.8,72.9 C548,72.9 547.5,73.2 547.2,73.7 C546.9,74.2 546.6,75.3 546.2,76.8 C545.8,79.1 545.2,81.4 544.5,83.8 C543.8,86.2 542.8,88.4 541.5,90.4 C540.2,92.3 538.6,93.9 536.6,95.2 C534.6,96.4 532,97.1 528.9,97.1 C526.6,97.1 524.7,96.6 523.2,95.6 C521.6,94.6 520.4,93.4 519.4,92 C518.4,90.6 517.7,89.3 517.2,87.9 C516.7,86.5 516.5,85.4 516.5,84.7 L516.5,80 C517.3,80.2 518,80.4 518.8,80.5 C519.6,80.6 520.3,80.7 520.8,80.7 C523.8,80.7 526.5,79.8 528.9,78 C531.3,76.2 533.3,74 534.9,71.4 C536.5,68.8 537.8,65.9 538.6,62.8 C539.5,59.7 539.9,56.9 539.9,54.3 L539.7,52 C539.6,50.2 539.2,48.4 538.4,46.7 C537.6,45 536.6,43.5 535.3,42.2 C534,40.9 532.5,39.9 530.8,39 C529.1,38.2 527.2,37.8 525.3,37.8 C521.3,37.8 517.9,39.1 515.1,41.8 C512.3,44.4 510,47.7 508.1,51.7 C506.3,55.6 504.9,59.9 504,64.4 C503.1,68.9 502.7,73.1 502.7,76.9 C502.7,78.6 502.8,80.2 502.9,81.8 C502.6,81.6 502.2,81.4 501.7,81.4 L501.2,81.4 C500.4,81.4 499.7,82.2 499,83.9 C498.3,85.6 497.3,87.4 496.1,89.4 C494.9,91.4 493.2,93.2 491.2,94.9 C489.2,96.6 486.5,97.4 483.1,97.4 L481.3,97.2 C476.4,96.8 473.1,94.3 471.2,89.8 C469.3,85.3 468.4,80 468.4,73.7 C468.4,72.1 468.6,69.8 469,66.9 C469.4,64 470.1,61.1 471.1,58.2 C472.1,55.3 473.6,52.8 475.4,50.6 C477.2,48.4 479.6,47.4 482.4,47.4 C484.3,47.5 485.7,48.2 486.6,49.4 C487.5,50.6 488.2,52 488.7,53.4 C489.2,54.9 489.8,56.2 490.3,57.5 C490.8,58.7 491.8,59.4 493.1,59.5 C494.3,59.5 495.1,58.9 495.4,57.7 C495.8,56.5 496,54.7 496,52.2 C496,49.3 496,46.9 495.9,45.1 C495.9,43.3 495.7,41.8 495.5,40.6 C495.3,39.7 494.3,39 492.7,38.4 C491,37.8 489.2,37.5 487.1,37.5 C482.9,37.5 478.8,38.5 474.7,40.6 C470.6,42.7 467.1,45.4 464.1,48.9 C460.6,52.8 458.4,57.1 457.2,61.9 C456.5,64.8 456.1,67.5 455.8,70.2 C455.4,70.6 455.2,71.1 455,71.8 L454.7,73.4 C454.2,76 453.6,78.5 452.9,80.9 C452.2,83.3 451.3,85.4 450.1,87 C449.4,87.9 448.5,88.9 447.4,90.1 C446.2,91.3 444.6,91.9 442.5,91.9 C441.1,91.9 440,91.4 439.1,90.5 C438.2,89.6 437.6,88.4 437.2,86.9 C436.8,85.4 436.6,83.8 436.5,82 C436.4,80.2 436.3,78.5 436.3,76.7 L436.3,67 C436.4,65.1 436.5,63.5 436.6,62.2 C436.7,61 436.8,59.9 436.9,59 C437,58.1 437.1,57.4 437.2,56.7 C437.3,56 437.4,55.2 437.5,54.3 C437.9,52.2 438.4,50.6 438.9,49.8 C439.4,48.9 439.6,48.3 439.5,48 C439.5,46.7 439,45.7 438,45 C437,44.3 435.8,43.8 434.5,43.5 C433.2,43.2 432,43 430.8,42.9 C429.6,42.8 428.9,42.8 428.5,42.8 C427.3,42.8 426.4,42.9 425.7,43 C425.1,43.1 424.5,43.3 423.9,43.6 C423.4,43.9 423.1,44.2 423.1,44.7 C423.1,44.9 423.2,45.3 423.5,45.8 C423.8,46.3 424,46.8 424.1,47.3 C424.3,48.2 424.4,49.1 424.5,50.1 C424.5,51.1 424.6,52 424.6,52.9 L424.6,70.7 C424.6,73.2 424.6,75.3 424.5,77 C424.4,78.7 424.3,80 424.3,80.9 C424.3,83.8 424.8,86.8 425.8,90 C426.8,93.1 428.7,95.7 431.5,97.6 C434.3,99.4 437.1,100.4 439.8,100.4 C443.2,100.4 446.2,99.6 448.5,98 C450.9,96.4 452.8,94.4 454.4,92 C455.3,90.5 456.1,89 456.8,87.3 C456.8,87.4 456.8,87.5 456.9,87.5 C458,91 459.4,94 461.3,96.4 C463.1,98.8 465.3,100.7 467.8,102.1 C470.3,103.5 472.9,104.3 475.6,104.6 C476.1,104.7 476.7,104.8 477.1,104.8 C477.6,104.8 478.1,104.8 478.6,104.8 C484.1,104.8 488.9,103.4 492.9,100.7 C496.9,97.9 500.3,93.5 502.9,87.3 C503.1,86.8 503.2,86.3 503.4,85.8 C503.5,86.5 503.7,87.2 503.8,87.8 C504.6,91.3 505.9,94.3 507.8,96.9 C509.7,99.5 512.1,101.5 515,103 C517.9,104.5 521.5,105.3 525.7,105.3 C530.1,105.3 533.9,104.3 537.1,102.4 C540.3,100.5 542.9,98.1 545,95.2 C547,92.3 548.6,89.2 549.5,85.9 C550.5,82.6 551,79.5 551,76.8 L551,75.7 C551.2,73.9 550.4,72.9 548.8,72.9 Z M517.6,70 C517.6,69.3 517.8,67.7 518.2,65.2 C518.6,62.8 519.3,60.2 520.2,57.6 C521.1,55 522.3,52.6 523.7,50.6 C525.1,48.6 526.8,47.5 528.7,47.5 C530,47.5 530.9,48 531.4,49 C531.9,50 532.1,50.9 532.1,51.8 L532.1,52.8 C532.1,54.3 531.9,56.2 531.5,58.6 C531.1,61 530.4,63.3 529.5,65.6 C528.6,67.9 527.4,69.8 525.9,71.4 C524.4,73 522.6,73.8 520.4,73.8 L519.6,73.8 C518.6,73.8 518.1,73.5 517.9,72.9 C517.7,72.3 517.7,71.5 517.7,70.6 L517.7,70 L517.6,70 Z" id="Shape" fill="#221F1F" fill-rule="nonzero"></path>
            <path d="M224,225.9 L206,225.9 L206,121.5 L231.2,121.5 C251.3,121.5 261.6,130 261.6,152.3 C261.6,169.1 255.1,175.9 249,178.6 L264.2,225.9 L246,225.9 L233.3,182.7 C231,183 227.2,183.1 224.1,183.1 L224.1,225.9 L224,225.9 Z M224,168.4 L230.4,168.4 C240.1,168.4 243.7,164.8 243.7,152.4 C243.7,140 240.1,136.4 230.4,136.4 L224,136.4 L224,168.4 Z" id="Shape" fill="#221F1F" fill-rule="nonzero"></path>
            <path d="M266.8,146.8 C266.8,132 275.5,120.1 294.3,120.1 C313.1,120.1 321.8,132.1 321.8,146.8 L321.8,200.6 C321.8,215.3 313.1,227.3 294.3,227.3 C275.5,227.3 266.8,215.3 266.8,200.6 L266.8,146.8 Z M284.7,200.2 C284.7,208 287,211.8 294.2,211.8 C301.4,211.8 303.7,208 303.7,200.2 L303.7,147.3 C303.7,139.5 301.4,135.7 294.2,135.7 C287,135.7 284.7,139.4 284.7,147.3 L284.7,200.2 Z" id="Shape" fill="#221F1F" fill-rule="nonzero"></path>
            <path d="M363.6,156.4 L363.6,148.3 C363.6,139.5 359.5,135.7 354.9,135.7 C347.7,135.7 345.4,139.4 345.4,147.3 L345.4,200.2 C345.4,208 347.7,211.8 354.9,211.8 C361.4,211.8 363.6,208 363.6,201.2 L363.6,188.6 L381.5,188.6 L381.5,200.6 C381.5,215.3 372.8,227.3 354.9,227.3 C336.1,227.3 327.4,215.3 327.4,200.6 L327.4,146.8 C327.4,132 336.1,120.1 354.9,120.1 C372.8,120.1 381.5,133.1 381.5,148.7 L381.5,156.4 L363.6,156.4 Z" id="Shape" fill="#221F1F" fill-rule="nonzero"></path>
            <polygon id="Shape" fill="#221F1F" fill-rule="nonzero" points="387.3 225.9 387.3 121.5 405.2 121.5 405.2 160.1 405.5 160.1 424.3 121.5 442.2 121.5 422.9 160.4 444.7 225.9 426.5 225.9 411.9 177.3 411.6 177.3 405.2 188.9 405.2 225.9"></polygon>
            <polygon id="Shape" fill="#221F1F" fill-rule="nonzero" points="446.9 225.9 446.9 121.5 494.9 121.5 494.9 137.2 464.8 137.2 464.8 164 487.9 164 487.9 179.6 464.8 179.6 464.8 210.3 496.9 210.3 496.9 225.9"></polygon>
            <polygon id="Shape" fill="#221F1F" fill-rule="nonzero" points="515.9 137.2 498.6 137.2 498.6 121.5 551.2 121.5 551.2 137.2 533.9 137.2 533.9 225.9 515.9 225.9"></polygon>
            <polygon id="Shape" fill="#221F1F" fill-rule="nonzero" points="537.8 140.6 536.3 140.6 536.3 139.3 540.7 139.3 540.7 140.6 539.2 140.6 539.2 148 537.8 148"></polygon>
            <polygon id="Shape" fill="#221F1F" fill-rule="nonzero" points="547.6 139.3 547.6 148 546.3 148 546.3 141.2 546.2 141.2 544.9 148 544.2 148 542.8 141.2 542.8 141.2 542.8 148 541.5 148 541.5 139.3 543.5 139.3 544.5 144.4 544.5 144.4 545.6 139.3"></polygon>
            <path d="M92,182.8 C100.1,154.6 104.1,160.8 104.1,160.8 L95.6,156.5 L88,152.1 L80.4,147.7 L72.4,142.5 C72.4,142.5 79.7,142.9 59.4,164 C39.1,185.1 43.5,229.1 43.5,229.1 C43.5,229.1 83.9,210.9 92,182.8 Z" id="Shape" fill="#EDA648" fill-rule="nonzero"></path>
            <path d="M77.4,191.7 C79.9,179.4 86.6,175.1 86.6,175.1 L81.8,172.6 L77.5,170.1 L73.2,167.6 L68.7,164.7 C68.7,164.7 68.4,172.7 59,181 C49.6,189.3 54.7,209.6 54.7,209.6 C54.7,209.6 74.9,204 77.4,191.7 Z" id="Shape" fill="url(#linearGradient-1)" fill-rule="nonzero"></path>
            <path d="M174.8,1.8 C173.5,1.1 172,0.8 170.5,1 C169.2,1.2 167.9,1.4 166.6,1.7 C138.1,6.4 102.7,12.2 78.5,65.6 C73.7,76.1 69.2,86.6 65.1,96.7 C48.1,98.9 15.3,108.1 1.2,144.7 C0.2,147.4 1,150.4 3.3,152.1 C3.5,152.2 4.4,152.9 5.7,153.7 C11.7,157.2 17.6,157.9 22.4,155.8 C33.1,151 43,151.2 50,152.5 C50.7,153.4 51.6,154.4 52.8,155.7 L51.3,159.4 C50.6,161 50.6,162.8 51.3,164.5 C51.7,165.5 56.1,174.8 70.3,183 C84.5,191.2 94.7,190.3 95.9,190.2 C97.6,190 99.2,189.1 100.3,187.7 L102.7,184.5 C104.4,184.9 105.8,185.2 106.8,185.3 C111.4,190.7 116.5,199.1 117.7,210.8 C118.2,216 121.8,220.7 127.8,224.2 C129.2,225 130.2,225.4 130.4,225.5 C133,226.6 136.1,225.9 137.9,223.6 C162.6,193.1 154.1,160.2 147.6,144.3 C154.3,135.7 161.1,126.6 167.8,117.2 C201.9,69.5 189.3,35.9 179.1,9 C178.6,7.7 178.2,6.5 177.7,5.3 C177.1,3.7 176,2.5 174.8,1.8" id="Shape" fill="#221F1F" fill-rule="nonzero"></path>
            <path d="M96,182 C96,182 87.2,183 74.4,175.6 C61.6,168.2 58.1,160.1 58.1,160.1 L62.8,149 L83.1,160.7 L103.4,172.4 L96,182 Z" id="Shape" fill="#1A1A1A" fill-rule="nonzero"></path>
            <path d="M54.8,145.1 C54.8,145.1 62.9,115.8 85.3,66.5 C109.2,13.9 143.3,10.6 172.6,5.7 C183,33.5 197.2,64.7 163.6,111.7 C132.1,155.7 110.8,177.4 110.8,177.4 C110.8,177.4 99.5,177 80.2,165.9 C60.8,154.7 54.8,145.1 54.8,145.1 M149.4,45.7 C135,37.4 116.6,42.3 108.2,56.7 C99.9,71.1 104.8,89.5 119.2,97.9 C133.6,106.2 152,101.3 160.3,86.9 C168.8,72.5 163.8,54.1 149.4,45.7" id="Shape" fill="#C1BFBD" fill-rule="nonzero"></path>
            <path d="M149.4,45.7 C135,37.4 116.6,42.3 108.2,56.7 C99.9,71.1 104.8,89.5 119.2,97.9 C133.6,106.2 152,101.3 160.3,86.9 C168.8,72.5 163.8,54.1 149.4,45.7" id="Shape" fill="#A6A5A6" fill-rule="nonzero"></path>
            <path d="M83.5,104.6 C83.5,104.6 81.1,104 78.9,103.4 C83,94.2 87.4,84.3 92,74.1 C113.3,26.7 138.7,15.5 172.6,5.7 C143.3,10.6 109.2,13.9 85.3,66.5 C62.9,115.8 54.8,145.1 54.8,145.1 L57.3,148.2 C57.3,148.2 57.4,148.3 57.6,148.6 L58.6,149.8 L58.6,149.7 C61.2,152.5 67.7,158.8 78.7,165.1 C62.8,145.8 83.5,104.6 83.5,104.6 Z" id="Shape" fill="#A6A5A6" fill-rule="nonzero"></path>
            <path d="M172.5,5.7 C172.5,5.7 195.6,53.2 172.2,93.7 C151,130.4 109.8,172.8 109.8,172.8 L105,170 C105,170 145.9,127.9 168.1,90 C185.7,59.8 172.5,5.7 172.5,5.7 Z" id="Shape" fill="#D8D8D7" fill-rule="nonzero"></path>
            <path d="M138.4,136.3 C134.7,129.2 131.4,132.3 131.4,132.3 L103.9,171.4 C103.9,171.4 122.5,183.3 125,208.4 C125.6,214.3 133.8,217.8 133.8,217.8 C164.2,180.4 139.9,139.2 138.4,136.3 Z" id="Shape" fill="#8B8B8A" fill-rule="nonzero"></path>
            <path d="M138.4,136.3 C134.7,129.2 131.4,132.3 131.4,132.3 C131.4,132.3 161.5,169.9 133.8,217.8 C164.2,180.4 139.9,139.2 138.4,136.3 Z" id="Shape" fill="#FFFFFF" fill-rule="nonzero"></path>
            <path d="M164.3,86 C170.5,75.3 170,62.6 164.1,52.7 C171.7,28.2 172.5,5.7 172.5,5.7 C172.5,5.7 167.8,25.3 159.4,46.5 C157.3,44.3 154.9,42.4 152.2,40.8 C136.4,31.7 116.2,37.1 107,52.9 C97.9,68.7 103.3,88.9 119.1,98.1 C122.3,99.9 125.7,101.2 129.1,101.9 C111.6,129.9 87.6,167.9 87.6,167.9 C87.6,167.9 89.4,168.9 90.9,169.5 C92.4,170.2 93.7,170.6 93.7,170.6 C93.7,170.6 119,133.6 138.7,102.4 C149.1,101.4 158.8,95.7 164.3,86 M123.1,91.4 C111,84.4 106.9,69 113.8,56.9 C120.8,44.8 136.2,40.7 148.3,47.6 C151.5,49.4 154.1,51.8 156.1,54.6 C152.9,62 149.3,69.3 145.4,75.8 C143.1,79.6 138.8,86.4 133.7,94.7 C130.1,94.4 126.4,93.3 123.1,91.4 M160.3,63.8 C161.7,69.8 160.9,76.4 157.6,82.1 C154.6,87.4 149.9,91.1 144.6,93.1 C147.6,88.2 150.4,83.6 152.8,79.4 C155.7,74.4 158.2,69.1 160.3,63.8" id="Shape" fill="#E6E5E5" fill-rule="nonzero"></path>
            <circle id="Oval" fill="#0E161E" cx="135" cy="70" r="27"></circle>
            <path d="M161.3,86 C152.9,100.5 134.3,105.5 119.8,97.1 C105.3,88.7 100.3,70.1 108.7,55.6 C117.1,41.1 135.7,36.1 150.2,44.5 C164.7,52.9 169.7,71.5 161.3,86 Z M148.5,47.3 C137.1,40.7 122.3,45.3 115.2,57.4 C108.2,69.5 111.7,84.7 123.1,91.2 C134.4,97.8 149.3,93.2 156.3,81.1 C163.4,69 159.9,53.8 148.5,47.3 Z" id="Shape" fill="#C1BFBD" fill-rule="nonzero"></path>
            <path d="M163,88.3 C153.9,104.1 133.6,109.5 117.8,100.4 C102,91.3 96.6,71 105.7,55.2 C114.8,39.4 135,34 150.9,43.1 C166.7,52.3 172.1,72.5 163,88.3 Z M147,49.9 C134.9,42.9 119.5,47.1 112.5,59.2 C105.5,71.3 109.7,86.7 121.7,93.7 C133.8,100.7 149.2,96.5 156.2,84.5 C163.2,72.4 159.1,56.9 147,49.9 Z" id="Shape" fill="#8B8B8A" fill-rule="nonzero"></path>
            <path d="M148.1,48.1 C147.4,47.7 147.1,46.7 147.5,46 C147.9,45.3 148.9,45 149.6,45.4 C150.3,45.8 150.6,46.8 150.2,47.5 C149.8,48.2 148.8,48.5 148.1,48.1 Z" id="Shape" fill="#676767" fill-rule="nonzero"></path>
            <path d="M138.6,44.6 C138,44.3 137.7,43.6 137.9,43 C138,42.6 138.2,42.2 138.5,42 C138.8,41.8 139.3,41.7 139.7,41.7 C139.9,41.7 140.1,41.8 140.2,41.9 C140.8,42.2 141.1,42.9 140.9,43.5 C140.7,44.3 139.9,44.9 139.1,44.8 C138.9,44.8 138.8,44.7 138.6,44.6 Z" id="Shape" fill="#676767" fill-rule="nonzero"></path>
            <path d="M128.6,44.6 C128.2,44.4 127.9,44 127.9,43.5 C127.8,43.1 127.9,42.7 128.2,42.4 C128.4,42.1 128.8,41.8 129.2,41.8 C129.6,41.7 129.9,41.8 130.2,42 C130.6,42.2 130.9,42.6 130.9,43.1 C131.1,43.9 130.5,44.7 129.7,44.9 C129.2,44.9 128.9,44.8 128.6,44.6 Z" id="Shape" fill="#676767" fill-rule="nonzero"></path>
            <path d="M119.1,48.1 C118.9,48 118.7,47.8 118.5,47.5 C118.3,47.1 118.2,46.7 118.3,46.3 C118.4,45.9 118.7,45.6 119,45.4 C119.5,45.1 120.1,45.1 120.6,45.4 C120.8,45.5 121,45.7 121.1,46 C121.3,46.4 121.4,46.8 121.3,47.2 C121.2,47.6 120.9,47.9 120.6,48.1 C120.2,48.3 119.6,48.3 119.1,48.1 Z" id="Shape" fill="#676767" fill-rule="nonzero"></path>
            <path d="M111.2,54.4 C110.9,54.1 110.7,53.8 110.6,53.4 C110.6,53 110.7,52.6 111,52.3 C111.5,51.7 112.3,51.6 112.9,52 C113.4,52.4 113.6,52.8 113.7,53.2 C113.7,53.6 113.6,54 113.3,54.3 C112.8,54.9 112,55 111.4,54.6 C111.4,54.5 111.3,54.4 111.2,54.4 Z" id="Shape" fill="#676767" fill-rule="nonzero"></path>
            <path d="M106.4,63.2 C105.8,62.8 105.5,62 105.7,61.3 C106,60.5 106.9,60.1 107.7,60.4 L107.8,60.4 C108.6,60.9 108.9,61.7 108.7,62.3 C108.6,62.7 108.3,63 107.9,63.2 C107.5,63.4 107.1,63.4 106.7,63.3 L106.4,63.2 Z" id="Shape" fill="#676767" fill-rule="nonzero"></path>
            <path d="M104.6,73.2 C104.1,72.9 103.8,72.4 103.8,71.9 C103.8,71.1 104.5,70.4 105.3,70.4 C105.6,70.4 105.8,70.5 106.1,70.6 C106.6,70.9 106.9,71.4 106.9,71.9 C106.9,72.3 106.7,72.7 106.4,73 C106.1,73.3 105.7,73.4 105.3,73.4 C105.1,73.4 104.9,73.3 104.6,73.2 Z" id="Shape" fill="#676767" fill-rule="nonzero"></path>
            <path d="M106.4,83.1 C106.1,82.9 105.8,82.6 105.7,82.3 C105.4,81.5 105.8,80.6 106.6,80.3 C107,80.1 107.5,80.2 107.9,80.4 C108.2,80.6 108.5,80.9 108.6,81.2 C108.7,81.6 108.7,82 108.5,82.4 C108.3,82.8 108,83.1 107.6,83.2 C107.2,83.3 106.8,83.3 106.4,83.1 Z" id="Shape" fill="#676767" fill-rule="nonzero"></path>
            <path d="M111.4,91.8 C111.2,91.7 111.1,91.6 111,91.4 C110.5,90.8 110.6,89.8 111.2,89.2 C111.7,88.8 112.4,88.7 113,89.1 C113.2,89.2 113.3,89.3 113.4,89.4 C113.9,90.1 113.9,91 113.2,91.6 C112.7,92 112,92.1 111.4,91.8 Z" id="Shape" fill="#676767" fill-rule="nonzero"></path>
            <path d="M119.1,98.3 C118.4,97.9 118.1,96.9 118.5,96.2 C118.7,95.8 119,95.6 119.4,95.5 C119.8,95.4 120.2,95.4 120.6,95.7 C121.3,96.1 121.6,97.1 121.2,97.8 C121,98.2 120.7,98.4 120.3,98.5 C119.9,98.5 119.5,98.4 119.1,98.3 Z" id="Shape" fill="#676767" fill-rule="nonzero"></path>
            <path d="M128.6,101.7 C128,101.4 127.8,100.7 127.9,100.1 C128,99.7 128.2,99.4 128.5,99.1 C128.8,98.9 129.2,98.8 129.7,98.8 C129.9,98.8 130,98.9 130.2,99 C130.8,99.3 131.1,100 130.9,100.6 C130.8,101 130.6,101.4 130.3,101.6 C130,101.8 129.6,101.9 129.1,101.8 C128.9,101.8 128.7,101.8 128.6,101.7 Z" id="Shape" fill="#676767" fill-rule="nonzero"></path>
            <path d="M138.6,101.7 C138.2,101.5 137.9,101.1 137.8,100.6 C137.7,100.2 137.8,99.8 138.1,99.5 C138.3,99.2 138.7,98.9 139.1,98.9 C139.5,98.8 139.8,98.9 140.1,99.1 C140.5,99.3 140.8,99.7 140.9,100.2 C141,100.6 140.9,101 140.6,101.4 C140.4,101.7 140,102 139.6,102 C139.3,101.9 139,101.9 138.6,101.7 Z" id="Shape" fill="#676767" fill-rule="nonzero"></path>
            <path d="M148.1,98.2 C147.9,98.1 147.7,97.9 147.5,97.6 C147.3,97.3 147.3,96.8 147.4,96.4 C147.5,96 147.8,95.7 148.1,95.5 C148.6,95.2 149.2,95.2 149.6,95.5 C149.8,95.6 150,95.8 150.2,96.1 C150.4,96.5 150.5,96.9 150.4,97.3 C150.3,97.7 150,98 149.7,98.2 C149.2,98.5 148.6,98.5 148.1,98.2 Z" id="Shape" fill="#676767" fill-rule="nonzero"></path>
            <path d="M155.6,91.6 C155.3,91.4 155.1,91 155.1,90.6 C155.1,90.2 155.2,89.8 155.4,89.5 C155.9,88.9 156.7,88.8 157.3,89.2 C157.8,89.6 158,90 158.1,90.4 C158.1,90.8 158,91.2 157.7,91.5 C157.2,92.1 156.4,92.2 155.8,91.8 C155.8,91.8 155.6,91.7 155.6,91.6 Z" id="Shape" fill="#676767" fill-rule="nonzero"></path>
            <path d="M160.8,83.1 C160.1,82.7 159.9,81.9 160.1,81.2 C160.4,80.4 161.3,80 162.1,80.3 L162.2,80.3 C163,80.8 163.3,81.6 163.1,82.2 C162.8,83 161.9,83.4 161.1,83.1 L160.8,83.1 Z" id="Shape" fill="#676767" fill-rule="nonzero"></path>
            <path d="M162.6,73.1 C162.1,72.8 161.8,72.3 161.8,71.8 C161.8,71 162.5,70.3 163.3,70.3 C163.6,70.3 163.8,70.4 164.1,70.5 C164.6,70.8 164.9,71.3 164.9,71.8 C164.9,72.6 164.2,73.3 163.4,73.3 C163.1,73.4 162.8,73.3 162.6,73.1 Z" id="Shape" fill="#676767" fill-rule="nonzero"></path>
            <path d="M160.8,63.2 C160.5,63 160.2,62.7 160.1,62.4 C159.8,61.6 160.2,60.7 161,60.4 C161.4,60.3 161.9,60.3 162.3,60.5 C162.6,60.7 162.9,61 163,61.3 C163.3,62.1 162.9,63 162.1,63.3 C161.7,63.5 161.2,63.5 160.8,63.2 Z" id="Shape" fill="#676767" fill-rule="nonzero"></path>
            <path d="M155.8,54.5 C155.6,54.4 155.5,54.3 155.4,54.2 C154.9,53.5 154.9,52.6 155.6,52 C156.1,51.6 156.8,51.5 157.4,51.8 C157.6,51.9 157.7,52 157.8,52.1 C158.3,52.7 158.2,53.7 157.6,54.3 C157,54.8 156.3,54.9 155.8,54.5 Z" id="Shape" fill="#676767" fill-rule="nonzero"></path>
            <path d="M83.5,104.6 C83.5,104.6 84.5,100.2 76.5,100.6 C73.2,100.7 25.5,100.3 8.2,145.3 C8.2,145.3 15.3,150.7 20.8,148.2 C43.9,137.9 63.4,148 63.4,148 L83.5,104.6 Z" id="Shape" fill="#C1BFBD" fill-rule="nonzero"></path>
            <path d="M83.5,104.6 C83.5,104.6 84.5,100.2 76.5,100.6 C73.2,100.7 25.5,100.3 8.2,145.3 C35.9,97.3 83.5,104.6 83.5,104.6 Z" id="Shape" fill="#E6E5E5" fill-rule="nonzero"></path>
        </g>
    </g>
</svg>